<svg xmlns="http://www.w3.org/2000/svg" viewBox="0 0 24 24">
  <path d="M12 8a4 4 0 1 0 0 8 4 4 0 0 0 0-8z" fill="#f1c40f"/>
  <path d="M19.4 15a1 1 0 0 0 .2 1.1l.6.6a1 1 0 0 1-1.4 1.4l-.6-.6a1 1 0 0 0-1.1-.2 7 7 0 0 1-2 .6 7 7 0 0 1-2 0 1 1 0 0 0-1.1.2l-.6.6a1 1 0 1 1-1.4-1.4l.6-.6a1 1 0 0 0 .2-1.1 7 7 0 0 1 0-2 1 1 0 0 0-.2-1.1l-.6-.6A1 1 0 0 1 6 7.4l.6.6a1 1 0 0 0 1.1.2 7 7 0 0 1 2-.6 7 7 0 0 1 2 0 1 1 0 0 0 1.1-.2l.6-.6A1 1 0 0 1 17.6 6l-.6.6a1 1 0 0 0-.2 1.1 7 7 0 0 1 0 2 1 1 0 0 0 .2 1.1l.6.6z" fill="#fff"/>
</svg>
